<svg width="32" height="32" viewBox="0 0 32 32" fill="none" xmlns="http://www.w3.org/2000/svg">
<g filter="url(#filter0_d_29_52)">
<path d="M16 2C21.523 2 26 6.477 26 12C26 17.523 21.523 22 16 22C10.477 22 6 17.523 6 12H8C8 16.418 11.582 20 16 20C20.418 20 24 16.418 24 12C24 7.582 20.418 4 16 4C13.25 4 10.824 5.387 9.385 7.5H12V9.5H6V3.5H8V6C9.824 3.57 12.729 2 16 2ZM17 7V11.585L20.243 14.828L18.828 16.243L15 12.413V7H17Z" fill="#C6C6C6" fill-opacity="0.6"/>
</g>
<defs>
<filter id="filter0_d_29_52" x="0" y="0" width="32" height="32" filterUnits="userSpaceOnUse" color-interpolation-filters="sRGB">
<feFlood flood-opacity="0" result="BackgroundImageFix"/>
<feColorMatrix in="SourceAlpha" type="matrix" values="0 0 0 0 0 0 0 0 0 0 0 0 0 0 0 0 0 0 127 0" result="hardAlpha"/>
<feOffset dy="4"/>
<feGaussianBlur stdDeviation="2"/>
<feComposite in2="hardAlpha" operator="out"/>
<feColorMatrix type="matrix" values="0 0 0 0 0 0 0 0 0 0 0 0 0 0 0 0 0 0 0.25 0"/>
<feBlend mode="normal" in2="BackgroundImageFix" result="effect1_dropShadow_29_52"/>
<feBlend mode="normal" in="SourceGraphic" in2="effect1_dropShadow_29_52" result="shape"/>
</filter>
</defs>
</svg>
